<svg width="24" height="18" viewBox="0 0 24 18" fill="none" xmlns="http://www.w3.org/2000/svg">
<path fill-rule="evenodd" clip-rule="evenodd" d="M20.7273 0C22.5348 0 24 1.46525 24 3.27273V14.1818C24 15.9893 22.5348 17.4545 20.7273 17.4545H3.27273C1.46525 17.4545 0 15.9893 0 14.1818V3.27273C0 1.46525 1.46525 0 3.27273 0H20.7273ZM19.9123 2.18182H4.08783L11.3241 7.89458C11.7204 8.20756 12.2796 8.20756 12.676 7.89458L19.9123 2.18182ZM2.18182 3.45687V14.1818C2.18182 14.7843 2.67024 15.2727 3.27273 15.2727H20.7273C21.3298 15.2727 21.8182 14.7843 21.8182 14.1818V3.45689L14.0279 9.60709C12.8389 10.5458 11.1611 10.5458 9.97211 9.60709L2.18182 3.45687Z" fill="url(#paint0_linear_11_251)"/>
<defs>
<linearGradient id="paint0_linear_11_251" x1="12" y1="0" x2="12" y2="17.4545" gradientUnits="userSpaceOnUse">
<stop stop-color="#FAD405"/>
<stop offset="1" stop-color="#E4C412"/>
</linearGradient>
</defs>
</svg>
