<svg width="60" height="60" viewBox="0 0 60 60" fill="none" xmlns="http://www.w3.org/2000/svg">
<path d="M21.2499 3H21.25H39.9997C43.1812 3.00389 46.2312 4.26945 48.4809 6.5191C50.7306 8.76883 51.9962 11.819 52 15.0006V33.3575L52 33.3589C52.0045 34.9351 51.6964 36.4965 51.0934 37.9528C50.4905 39.4091 49.6047 40.7314 48.4873 41.843L48.4866 41.8438L44.6466 45.6813L44.5 45.8278V46.035V55C44.5 55.5304 44.2893 56.0391 43.9142 56.4142C43.5391 56.7893 43.0304 57 42.5 57H17.5C16.9696 57 16.4609 56.7893 16.0858 56.4142C15.7107 56.0391 15.5 55.5304 15.5 55V46.035V45.8278L15.3534 45.6813L11.5134 41.8438L11.5127 41.843C10.3953 40.7314 9.50952 39.4091 8.90658 37.9528C8.30363 36.4965 7.99549 34.9351 8 33.3589V33.3575V25.0012C8.0058 23.7741 8.33812 22.5707 8.96285 21.5146L9.13049 21.2311L8.93633 20.9652C8.86282 20.8645 8.79916 20.757 8.74625 20.6441C8.04582 18.6516 7.83183 16.5204 8.12226 14.4282C8.41375 12.3283 9.20484 10.3291 10.4291 8.59835C11.6533 6.86761 13.275 5.45588 15.1579 4.48173C17.0408 3.50758 19.1299 2.99945 21.2499 3ZM40 53H40.5V52.5V47.5V47H40H20H19.5V47.5V52.5V53H20H40ZM41.465 43H41.672L41.8184 42.8537L45.6578 39.0168C46.4029 38.2748 46.9935 37.3925 47.3955 36.4209C47.7975 35.4492 48.003 34.4076 48 33.3561V15C48 12.8783 47.1571 10.8434 45.6568 9.34315C44.1566 7.84286 42.1217 7 40 7H21.2516C19.8861 6.99155 18.5359 7.28732 17.299 7.86584C16.0616 8.44459 14.9688 9.29176 14.0998 10.3458C13.2309 11.3998 12.6077 12.6342 12.2756 13.9593C11.9434 15.2843 11.9107 16.6667 12.1798 18.006L12.2925 18.5672L12.8335 18.38C13.5318 18.1384 14.2644 18.0101 15.0033 18C16.8586 18.0009 18.6378 18.7383 19.9497 20.0503C21.2625 21.363 22 23.1435 22 25V25.5H22.5H40C40.5304 25.5 41.0391 25.7107 41.4142 26.0858C41.7893 26.4609 42 26.9696 42 27.5C42 28.0304 41.7893 28.5391 41.4142 28.9142C41.0391 29.2893 40.5304 29.5 40 29.5H22.5H22V30V32.5C22 33.0304 21.7893 33.5391 21.4142 33.9142C21.0391 34.2893 20.5304 34.5 20 34.5C19.4696 34.5 18.9609 34.2893 18.5858 33.9142C18.2107 33.5391 18 33.0304 18 32.5V25C18 24.2043 17.6839 23.4413 17.1213 22.8787C16.5587 22.3161 15.7956 22 15 22C14.2043 22 13.4413 22.3161 12.8787 22.8787C12.3161 23.4413 12 24.2043 12 25V33.357C11.9972 34.4082 12.2026 35.4495 12.6045 36.4209C13.0065 37.3925 13.5971 38.2748 14.3422 39.0168L18.1816 42.8537L18.328 43H18.535H41.465Z" fill="url(#paint0_linear_6_27)" stroke="url(#paint1_linear_6_27)"/>
<defs>
<linearGradient id="paint0_linear_6_27" x1="29.9982" y1="2.5" x2="29.9982" y2="57.5" gradientUnits="userSpaceOnUse">
<stop stop-color="#FFD700"/>
<stop offset="1" stop-color="#D7B70A"/>
</linearGradient>
<linearGradient id="paint1_linear_6_27" x1="29.9982" y1="2.5" x2="29.9982" y2="57.5" gradientUnits="userSpaceOnUse">
<stop stop-color="#FECC02"/>
<stop offset="1" stop-color="#D9B90A"/>
</linearGradient>
</defs>
</svg>
