<svg width="24" height="25" viewBox="0 0 24 25" fill="none" xmlns="http://www.w3.org/2000/svg">
<path d="M12 6C10.4087 6 8.88258 6.63214 7.75736 7.75736C6.63214 8.88258 6 10.4087 6 12C6 13.5913 6.63214 15.1174 7.75736 16.2426C8.88258 17.3679 10.4087 18 12 18C13.5913 18 15.1174 17.3679 16.2426 16.2426C17.3679 15.1174 18 13.5913 18 12C18 10.4087 17.3679 8.88258 16.2426 7.75736C15.1174 6.63214 13.5913 6 12 6ZM12 15.8966C10.9662 15.8966 9.97475 15.486 9.24375 14.755C8.51275 14.0239 8.10208 13.0325 8.10208 11.9987C8.10208 10.9649 8.51275 9.97346 9.24375 9.24246C9.97475 8.51145 10.9662 8.10078 12 8.10078C13.0338 8.10078 14.0252 8.51145 14.7562 9.24246C15.4873 9.97346 15.8979 10.9649 15.8979 11.9987C15.8979 13.0325 15.4873 14.0239 14.7562 14.755C14.0252 15.486 13.0338 15.8966 12 15.8966Z" fill="#FECC02"/>
<path d="M23.3643 4.14133C23.0558 3.34424 22.5843 2.62038 21.98 2.01608C21.3758 1.41178 20.652 0.940361 19.8552 0.632C18.9227 0.281809 17.9376 0.0924548 16.9418 0.0719999C15.6584 0.0159999 15.2519 0 11.9973 0C8.74278 0 8.32563 -1.33514e-07 7.05287 0.0719999C6.05783 0.091409 5.07342 0.280802 4.14216 0.632C3.34509 0.940002 2.62119 1.41129 2.01688 2.01564C1.41258 2.61998 0.94122 3.34403 0.633052 4.14133C0.282947 5.07415 0.0941109 6.05978 0.0746335 7.056C0.0173256 8.33867 0 8.74533 0 12.0027C0 15.2587 -9.53251e-09 15.6733 0.0746335 16.9493C0.0946246 17.9467 0.282541 18.9307 0.633052 19.8653C0.942085 20.6623 1.4139 21.3861 2.01835 21.9904C2.6228 22.5946 3.3466 23.0661 4.14349 23.3747C5.07299 23.7389 6.0578 23.9418 7.05553 23.9747C8.33896 24.0307 8.74545 24.048 12 24.048C15.2546 24.048 15.6717 24.048 16.9445 23.9747C17.9402 23.9544 18.9252 23.7655 19.8578 23.416C20.6545 23.1069 21.378 22.6351 21.9822 22.0306C22.5864 21.4262 23.058 20.7023 23.3669 19.9053C23.7175 18.972 23.9054 17.988 23.9254 16.9907C23.9827 15.708 24 15.3013 24 12.044C24 8.78667 24 8.37333 23.9254 7.09733C23.9099 6.08703 23.72 5.087 23.3643 4.14133ZM21.741 16.8507C21.7324 17.6191 21.5922 18.3803 21.3265 19.1013C21.1264 19.6198 20.82 20.0907 20.427 20.4836C20.0341 20.8765 19.5632 21.1827 19.0449 21.3827C18.3322 21.6473 17.5793 21.7875 16.8192 21.7973C15.5531 21.856 15.1959 21.8707 11.9494 21.8707C8.70013 21.8707 8.36828 21.8707 7.07819 21.7973C6.31843 21.788 5.56596 21.6478 4.85384 21.3827C4.33366 21.184 3.86095 20.8783 3.46631 20.4853C3.07167 20.0923 2.76389 19.6208 2.56286 19.1013C2.30091 18.3881 2.16079 17.6358 2.14838 16.876C2.09107 15.6093 2.07774 15.252 2.07774 12.004C2.07774 8.75467 2.07774 8.42267 2.14838 7.13067C2.15699 6.3627 2.29719 5.60189 2.56286 4.88133C2.96935 3.82933 3.80231 3.00133 4.85384 2.59867C5.56631 2.33485 6.31856 2.19462 7.07819 2.184C8.34562 2.12667 8.70147 2.11067 11.9494 2.11067C15.1972 2.11067 15.5304 2.11067 16.8192 2.184C17.5794 2.19315 18.3323 2.33343 19.0449 2.59867C19.5632 2.79903 20.034 3.1056 20.4269 3.49871C20.8198 3.89181 21.1262 4.36276 21.3265 4.88133C21.5885 5.5946 21.7286 6.34688 21.741 7.10667C21.7983 8.37467 21.813 8.73067 21.813 11.98C21.813 15.228 21.813 15.5773 21.7557 16.852H21.741V16.8507Z" fill="#F7D206"/>
</svg>
