<svg width="122" height="50" viewBox="0 0 122 50" fill="none" xmlns="http://www.w3.org/2000/svg">
<path d="M23.0564 0.0425873C15.0044 0.728006 7.90394 5.06012 3.69161 11.8611C1.74848 15.002 0.54401 18.5223 0.0848455 22.4352C-0.0282818 23.4001 -0.0282818 26.5943 0.0848455 27.5592C0.464155 30.7733 1.30263 33.6081 2.66016 36.2766C6.19372 43.224 12.6154 48.0751 20.2947 49.5791C21.3528 49.7854 22.9832 49.9584 24.2875 49.9983C30.2832 50.1713 35.9662 48.2482 40.7708 44.4085C41.576 43.7696 43.5258 41.8465 44.2045 41.0213C47.4054 37.1484 49.4217 32.3504 49.8675 27.5592C50.0006 26.1284 50.0006 26.0619 49.9141 26.0619C49.8675 26.0619 48.3636 26.3613 46.5735 26.7207C41.6159 27.7322 41.3298 27.7921 41.2832 27.8453C41.2566 27.8719 41.1767 28.198 41.0968 28.5707C40.1452 33.0824 37.0575 37.195 32.8851 39.4974C32.4592 39.7303 32.4925 39.7503 32.3661 39.1381C32.2663 38.6257 32.2729 38.3595 32.406 38.1C32.4659 37.9868 32.599 37.3081 32.7055 36.5827C32.8186 35.8241 33.0382 34.7195 33.2312 33.9475C33.5639 32.6432 33.5705 32.6166 33.8633 32.3238C34.0231 32.1508 34.3691 31.7183 34.6353 31.3523C34.9015 30.9863 35.2874 30.4805 35.4937 30.2276L35.8664 29.7685L35.913 28.7304C35.9329 28.1581 35.9928 27.5725 36.0394 27.4261C36.1525 27.08 36.1525 25.4829 36.0327 25.0038C35.9263 24.5513 35.7998 24.3317 35.2209 23.5598C34.8083 23.0074 34.7551 22.9076 34.7018 22.5217C34.6153 21.9094 34.4157 21.3238 34.1695 20.9312C33.8767 20.4854 33.1779 19.8998 32.6056 19.6269C32.2064 19.4406 32.0533 19.4073 31.6075 19.394C31.2614 19.3874 30.962 19.4273 30.7557 19.4938C30.3364 19.6402 30.1168 19.6336 29.7309 19.4672C29.3516 19.3009 28.7194 19.2742 27.1156 19.3674C26.204 19.4206 26.0642 19.414 25.9711 19.3208C25.7914 19.1345 25.6317 17.6572 25.7847 17.5041C25.8579 17.4309 25.9844 16.4061 25.9844 15.8804C25.9844 15.5277 25.9444 15.4079 25.7049 15.0752C25.6317 14.9687 25.5718 14.6893 25.5319 14.27C25.4786 13.6778 25.452 13.5979 25.2191 13.2718C24.4871 12.2537 24.1211 11.9809 23.1828 11.7546C22.5107 11.5949 22.1513 11.5882 21.6256 11.728C20.8138 11.9343 19.6892 12.8459 19.3365 13.5713C19.0104 14.2367 19.017 14.849 19.3631 16.1333C19.4562 16.4727 19.5294 16.7721 19.5294 16.7921C19.5294 16.8121 19.4562 16.8054 19.3697 16.7854C19.0969 16.7189 19.0437 16.872 19.1634 17.3777C19.2766 17.8768 19.5294 18.2827 19.942 18.6421C20.1749 18.835 20.2748 18.8816 20.4611 18.8617C20.6807 18.8417 20.7006 18.855 20.9735 19.3408C21.4792 20.2525 21.5458 20.6451 21.2796 21.1575C21.2264 21.264 20.8936 21.6566 20.5343 22.0292C20.1816 22.3952 19.7823 22.8411 19.6426 23.0074L19.3964 23.3136L18.6444 23.3535C17.2736 23.4134 16.302 23.8725 15.2572 24.9373L14.6849 25.5295H14.2391C13.5204 25.5295 12.9015 25.8223 12.2959 26.4412C11.7902 26.9669 11.2778 27.3529 11.1979 27.273C11.1314 27.2065 10.8785 26.4678 10.8785 26.348C10.8785 26.1617 10.426 25.2833 10.1332 24.8973C9.57424 24.1587 9.09511 22.9209 9.03522 22.0625C8.99529 21.5102 9.00195 21.4769 9.155 21.3638C9.24151 21.2906 9.43449 21.1109 9.58089 20.9578L9.85373 20.6784L10.0667 20.8181C10.253 20.9379 10.3062 20.9445 10.4793 20.8713C10.7521 20.7582 11.0249 20.4255 10.9783 20.2658C10.9451 20.1726 10.9917 20.1061 11.1314 20.0262C11.5107 19.8066 11.7237 19.2543 11.7503 18.4491C11.7636 17.8968 11.7569 17.8834 10.9517 17.6306C10.639 17.5374 10.3728 17.4442 10.3595 17.4376C10.3129 17.4043 10.7587 16.5991 11.1913 15.947C15.8096 8.96634 24.7865 6.51747 32.2796 10.1974C35.2675 11.6681 37.8162 14.1037 39.4465 17.045C40.0255 18.0897 40.438 19.0946 40.9238 20.6517C40.9438 20.705 41.2033 20.6717 41.8355 20.5386C44.4574 19.973 49.242 18.9349 49.2553 18.9216C49.262 18.9082 49.1489 18.4824 49.0025 17.9766C47.3255 12.1805 43.4193 7.01656 38.2953 3.81572C35.1477 1.84597 31.8337 0.661461 28.1138 0.175678C26.9293 0.015969 24.1876 -0.0505764 23.0564 0.0425873ZM17.6396 30.4938C17.9124 31.0262 18.4714 31.4521 19.1834 31.685C19.5694 31.8048 19.5228 31.7648 20.9868 33.5483C21.6589 34.3601 21.7121 34.5132 21.6256 35.2651C21.599 35.4914 21.5724 35.8774 21.5657 36.1236C21.5591 36.5295 21.5458 36.5761 21.3594 36.7158C21.0666 36.9487 20.9602 37.0885 20.6873 37.6208L20.4411 38.1066L20.5609 39.0982L20.6873 40.0963L20.501 40.3625C20.1816 40.8217 20.2082 40.8217 19.3431 40.5089C15.4635 39.1048 12.1296 36.1369 10.253 32.4303C10.0334 31.9977 9.87369 31.6384 9.89365 31.6184C9.91362 31.5985 10.1066 31.6317 10.3195 31.685C10.5325 31.7449 11.1048 31.8181 11.5773 31.8513C12.0564 31.8846 12.6353 31.9445 12.8749 31.9844C13.6135 32.1175 14.5652 31.9977 15.4768 31.6584C15.916 31.492 16.6347 30.9131 16.9808 30.4539C17.1205 30.2676 17.2802 30.1212 17.3334 30.1212C17.4 30.1212 17.5264 30.2742 17.6396 30.4938Z" fill="url(#paint0_linear_21_9)"/>
<path d="M47.046 20.2658C45.8415 20.5519 44.0249 20.9711 43.02 21.2041C42.0152 21.437 41.1834 21.6299 41.1701 21.6366C41.1434 21.6566 41.3364 22.7413 41.3763 22.7812C41.3963 22.8011 41.6026 22.7679 41.8355 22.708C42.6806 22.5017 47.6715 21.2773 48.6631 21.0377C49.5082 20.8314 49.6746 20.7715 49.648 20.6783C49.628 20.6185 49.5814 20.3855 49.5348 20.1526C49.4749 19.8465 49.4284 19.7401 49.3485 19.7467C49.2886 19.7467 48.2572 19.9863 47.046 20.2658Z" fill="#FAF82E"/>
<path d="M45.5155 22.5816C43.2862 23.114 41.4429 23.5598 41.4296 23.5731C41.4163 23.5864 41.4296 23.7395 41.4628 23.9192L41.5227 24.2386L45.6752 23.287C47.9577 22.7679 49.8343 22.3287 49.8409 22.3221C49.8542 22.3088 49.8409 22.1424 49.8276 21.9494C49.801 21.6832 49.7677 21.6034 49.6812 21.61C49.6213 21.6167 47.7514 22.0492 45.5155 22.5816Z" fill="#FAF82E"/>
<path d="M49.0424 23.5331C46.8663 24.0522 42.1483 25.1435 41.8488 25.2101L41.5028 25.2766L41.4562 26.0086C41.4296 26.4079 41.4229 26.7473 41.4362 26.7673C41.4495 26.7806 43.3793 26.3813 45.7218 25.8755L49.974 24.9639L49.994 24.5646C50.0206 24.1054 49.954 23.3335 49.8875 23.3402C49.8609 23.3468 49.4816 23.4333 49.0424 23.5331Z" fill="#FAF82E"/>
<path d="M63.312 30.18C62.352 30.18 61.626 29.91 61.134 29.37C60.642 28.818 60.396 28.032 60.396 27.012V26.292H62.268V27.156C62.268 27.972 62.61 28.38 63.294 28.38C63.63 28.38 63.882 28.284 64.05 28.092C64.23 27.888 64.32 27.564 64.32 27.12C64.32 26.592 64.2 26.13 63.96 25.734C63.72 25.326 63.276 24.84 62.628 24.276C61.812 23.556 61.242 22.908 60.918 22.332C60.594 21.744 60.432 21.084 60.432 20.352C60.432 19.356 60.684 18.588 61.188 18.048C61.692 17.496 62.424 17.22 63.384 17.22C64.332 17.22 65.046 17.496 65.526 18.048C66.018 18.588 66.264 19.368 66.264 20.388V20.91H64.392V20.262C64.392 19.83 64.308 19.518 64.14 19.326C63.972 19.122 63.726 19.02 63.402 19.02C62.742 19.02 62.412 19.422 62.412 20.226C62.412 20.682 62.532 21.108 62.772 21.504C63.024 21.9 63.474 22.38 64.122 22.944C64.95 23.664 65.52 24.318 65.832 24.906C66.144 25.494 66.3 26.184 66.3 26.976C66.3 28.008 66.042 28.8 65.526 29.352C65.022 29.904 64.284 30.18 63.312 30.18ZM68.9833 19.2H66.9133V17.4H73.0333V19.2H70.9633V30H68.9833V19.2ZM73.9919 17.4H76.9259C77.9459 17.4 78.6899 17.64 79.1579 18.12C79.6259 18.588 79.8599 19.314 79.8599 20.298V21.072C79.8599 22.38 79.4279 23.208 78.5639 23.556V23.592C79.0439 23.736 79.3799 24.03 79.5719 24.474C79.7759 24.918 79.8779 25.512 79.8779 26.256V28.47C79.8779 28.83 79.8899 29.124 79.9139 29.352C79.9379 29.568 79.9979 29.784 80.0939 30H78.0779C78.0059 29.796 77.9579 29.604 77.9339 29.424C77.9099 29.244 77.8979 28.92 77.8979 28.452V26.148C77.8979 25.572 77.8019 25.17 77.6099 24.942C77.4299 24.714 77.1119 24.6 76.6559 24.6H75.9719V30H73.9919V17.4ZM76.6919 22.8C77.0879 22.8 77.3819 22.698 77.5739 22.494C77.7779 22.29 77.8799 21.948 77.8799 21.468V20.496C77.8799 20.04 77.7959 19.71 77.6279 19.506C77.4719 19.302 77.2199 19.2 76.8719 19.2H75.9719V22.8H76.6919ZM84.1137 30.18C83.1417 30.18 82.3977 29.904 81.8817 29.352C81.3657 28.8 81.1077 28.02 81.1077 27.012V20.388C81.1077 19.38 81.3657 18.6 81.8817 18.048C82.3977 17.496 83.1417 17.22 84.1137 17.22C85.0857 17.22 85.8297 17.496 86.3457 18.048C86.8617 18.6 87.1197 19.38 87.1197 20.388V27.012C87.1197 28.02 86.8617 28.8 86.3457 29.352C85.8297 29.904 85.0857 30.18 84.1137 30.18ZM84.1137 28.38C84.7977 28.38 85.1397 27.966 85.1397 27.138V20.262C85.1397 19.434 84.7977 19.02 84.1137 19.02C83.4297 19.02 83.0877 19.434 83.0877 20.262V27.138C83.0877 27.966 83.4297 28.38 84.1137 28.38ZM88.4587 17.4H90.9427L92.8687 24.942H92.9047V17.4H94.6687V30H92.6347L90.2587 20.802H90.2227V30H88.4587V17.4ZM98.9483 30.18C97.9883 30.18 97.2563 29.91 96.7523 29.37C96.2483 28.818 95.9963 28.032 95.9963 27.012V20.388C95.9963 19.368 96.2483 18.588 96.7523 18.048C97.2563 17.496 97.9883 17.22 98.9483 17.22C99.9083 17.22 100.64 17.496 101.144 18.048C101.648 18.588 101.9 19.368 101.9 20.388V21.468H100.028V20.262C100.028 19.434 99.6863 19.02 99.0023 19.02C98.3183 19.02 97.9763 19.434 97.9763 20.262V27.156C97.9763 27.972 98.3183 28.38 99.0023 28.38C99.6863 28.38 100.028 27.972 100.028 27.156V24.69H99.0383V22.89H101.9V27.012C101.9 28.032 101.648 28.818 101.144 29.37C100.64 29.91 99.9083 30.18 98.9483 30.18ZM106.054 17.4H111.292V19.2H108.034V22.71H110.59V24.51H108.034V30H106.054V17.4ZM112.242 17.4H114.222V30H112.242V17.4ZM117.253 19.2H115.183V17.4H121.303V19.2H119.233V30H117.253V19.2Z" fill="#FAF82E"/>
<defs>
<linearGradient id="paint0_linear_21_9" x1="24.9871" y1="50.009" x2="24.9871" y2="3.8147e-06" gradientUnits="userSpaceOnUse">
<stop stop-color="#0E0E80"/>
<stop offset="1" stop-color="#2525A2"/>
</linearGradient>
</defs>
</svg>
