<svg width="60" height="60" viewBox="0 0 60 60" fill="none" xmlns="http://www.w3.org/2000/svg">
<path d="M50 25C49.337 25 48.7011 24.7366 48.2322 24.2678C47.7634 23.7989 47.5 23.163 47.5 22.5V17.5H12.5V22.5C12.5 23.163 12.2366 23.7989 11.7678 24.2678C11.2989 24.7366 10.663 25 10 25C9.33696 25 8.70107 24.7366 8.23223 24.2678C7.76339 23.7989 7.5 23.163 7.5 22.5C6.83696 22.5 6.20107 22.2366 5.73223 21.7678C5.26339 21.2989 5 20.663 5 20V10C5 9.33696 5.26339 8.70107 5.73223 8.23223C6.20107 7.76339 6.83696 7.5 7.5 7.5C7.5 6.83696 7.76339 6.20107 8.23223 5.73223C8.70107 5.26339 9.33696 5 10 5C10.663 5 11.2989 5.26339 11.7678 5.73223C12.2366 6.20107 12.5 6.83696 12.5 7.5V12.5H47.5V7.5C47.5 6.83696 47.7634 6.20107 48.2322 5.73223C48.7011 5.26339 49.337 5 50 5C50.663 5 51.2989 5.26339 51.7678 5.73223C52.2366 6.20107 52.5 6.83696 52.5 7.5C53.163 7.5 53.7989 7.76339 54.2678 8.23223C54.7366 8.70107 55 9.33696 55 10V20C55 20.663 54.7366 21.2989 54.2678 21.7678C53.7989 22.2366 53.163 22.5 52.5 22.5C52.5 23.163 52.2366 23.7989 51.7678 24.2678C51.2989 24.7366 50.663 25 50 25Z" fill="#FFD700"/>
<path d="M47.5 55H12.5C11.837 55 11.2011 54.7366 10.7322 54.2678C10.2634 53.7989 10 53.163 10 52.5C10 51.837 10.2634 51.2011 10.7322 50.7322C11.2011 50.2634 11.837 50 12.5 50H17.5V10C17.5 9.33696 17.7634 8.70107 18.2322 8.23223C18.7011 7.76339 19.337 7.5 20 7.5C20.663 7.5 21.2989 7.76339 21.7678 8.23223C22.2366 8.70107 22.5 9.33696 22.5 10V50H37.5V10C37.5 9.33696 37.7634 8.70107 38.2322 8.23223C38.7011 7.76339 39.337 7.5 40 7.5C40.663 7.5 41.2989 7.76339 41.7678 8.23223C42.2366 8.70107 42.5 9.33696 42.5 10V50H47.5C48.163 50 48.7989 50.2634 49.2678 50.7322C49.7366 51.2011 50 51.837 50 52.5C50 53.163 49.7366 53.7989 49.2678 54.2678C48.7989 54.7366 48.163 55 47.5 55Z" fill="url(#paint0_linear_6_24)"/>
<defs>
<linearGradient id="paint0_linear_6_24" x1="30" y1="7.5" x2="30" y2="55" gradientUnits="userSpaceOnUse">
<stop stop-color="#FFD700"/>
<stop offset="1" stop-color="#D3B40B"/>
</linearGradient>
</defs>
</svg>
