<svg width="60" height="60" viewBox="0 0 60 60" fill="none" xmlns="http://www.w3.org/2000/svg">
<path d="M28.86 21.1801H30.78C31.32 21.1801 31.74 21.6001 31.74 22.1401V30.5401C31.74 30.7801 31.62 31.0201 31.5 31.2601L26.1 36.6601C25.74 37.0201 25.14 37.0201 24.78 36.6601L23.46 35.3401C23.1 34.9801 23.1 34.3801 23.46 34.0201L27.96 29.4601V22.2001C27.9 21.7201 28.26 21.2401 28.8 21.1801C28.8 21.1801 28.8 21.1801 28.86 21.1801Z" fill="#FECC02"/>
<path d="M50.7 29.52H48.4832C48.117 29.52 47.76 29.2263 47.76 28.86C46.98 19.02 38.4 11.64 28.56 12.36C18.72 13.14 11.34 21.72 12.06 31.56C12.78 40.86 20.4 48 29.7 48.12C34.74 48.24 39.6 46.14 43.02 42.48C43.32 42.18 43.62 41.88 43.26 41.52L41.7 39.66C41.16 39 40.68 39.3 40.26 39.72C37.26 43.02 32.82 44.7 28.38 44.22C22.2 43.62 16.44 37.86 15.78 31.8C15 24.06 20.64 17.1 28.38 16.32C36.1107 15.541 43.0633 21.1665 43.8572 28.8922C43.8587 28.907 43.8471 28.92 43.8322 28.92C43.8159 28.92 43.8039 28.9354 43.8076 28.9514C43.836 29.0729 43.849 29.1798 43.8549 29.2887C43.8638 29.4494 43.7295 29.58 43.5686 29.58H41.04C40.5 29.58 40.08 30 40.08 30.54C40.08 30.78 40.14 30.96 40.26 31.14L45.06 36.96C45.48 37.38 46.14 37.38 46.56 36.96L51.36 31.14C51.72 30.78 51.72 30.18 51.36 29.82C51.18 29.64 50.94 29.52 50.7 29.52Z" fill="url(#paint0_linear_6_33)"/>
<defs>
<linearGradient id="paint0_linear_6_33" x1="31.8208" y1="12.3115" x2="31.8208" y2="48.1249" gradientUnits="userSpaceOnUse">
<stop stop-color="#FECC02"/>
<stop offset="1" stop-color="#D7B80A"/>
</linearGradient>
</defs>
</svg>
