<svg width="24" height="25" viewBox="0 0 24 25" fill="none" xmlns="http://www.w3.org/2000/svg">
<path fill-rule="evenodd" clip-rule="evenodd" d="M20.5031 3.50486C19.3961 2.39056 18.079 1.50701 16.6281 0.905393C15.1771 0.303774 13.6213 -0.00395371 12.0506 3.83482e-05C5.46422 3.83482e-05 0.102496 5.36043 0.0998335 11.9494C0.0998335 14.0553 0.649582 16.1105 1.69451 17.9235L0 24.1145L6.33476 22.4519C8.08703 23.4058 10.0502 23.9059 12.0452 23.9068H12.0506C18.6356 23.9068 23.9973 18.5464 24 11.9574C24.0045 10.3874 23.6978 8.83196 23.0976 7.38113C22.4974 5.93031 21.6156 4.61284 20.5031 3.50486ZM12.0506 21.8902H12.0466C10.2676 21.8904 8.52129 21.4117 6.991 20.5045L6.62894 20.2889L2.86988 21.2752L3.8722 17.6107L3.6366 17.2353C2.64197 15.6518 2.11545 13.8194 2.1178 11.9494C2.12046 6.47324 6.57569 2.018 12.0546 2.018C13.3594 2.01511 14.6518 2.27102 15.8571 2.77095C17.0623 3.27087 18.1565 4.00488 19.0762 4.93048C20.0008 5.85166 20.7337 6.94697 21.2324 8.1531C21.7312 9.35922 21.9859 10.6522 21.982 11.9574C21.9793 17.4336 17.5241 21.8902 12.0506 21.8902ZM17.4988 14.4506C17.1993 14.3002 15.7324 13.5787 15.4582 13.4789C15.1853 13.379 14.987 13.3298 14.7873 13.628C14.5877 13.9261 14.0153 14.5983 13.8409 14.798C13.6665 14.9977 13.4922 15.0216 13.194 14.8726C12.8958 14.7235 11.9334 14.408 10.7927 13.391C9.9048 12.599 9.3058 11.622 9.13143 11.3225C8.95705 11.023 9.11279 10.8619 9.26321 10.7128C9.39765 10.5797 9.56138 10.3641 9.71046 10.1897C9.85955 10.0153 9.9088 9.89153 10.0086 9.69187C10.1085 9.4922 10.0592 9.31782 9.98334 9.16874C9.9088 9.01832 9.31113 7.54878 9.06221 6.95111C8.82128 6.37207 8.57502 6.44928 8.39133 6.44129C8.20108 6.43351 8.01069 6.42996 7.82028 6.43064C7.66888 6.4345 7.5199 6.4696 7.38269 6.53373C7.24549 6.59787 7.12301 6.68966 7.02295 6.80335C6.74874 7.10285 5.97802 7.82432 5.97802 9.29386C5.97802 10.7634 7.04824 12.1837 7.19732 12.3834C7.34641 12.583 9.30314 15.598 12.2981 16.8919C13.0116 17.1993 13.568 17.383 14.0006 17.5215C14.7154 17.7491 15.3664 17.7158 15.8815 17.6399C16.4552 17.5547 17.6479 16.9185 17.8968 16.221C18.1457 15.5235 18.1457 14.9258 18.0712 14.8007C17.9966 14.6756 17.7956 14.5997 17.4988 14.4506Z" fill="url(#paint0_linear_11_243)"/>
<defs>
<linearGradient id="paint0_linear_11_243" x1="12" y1="0" x2="12" y2="24.1145" gradientUnits="userSpaceOnUse">
<stop stop-color="#F9D405"/>
<stop offset="1" stop-color="#E6C512"/>
</linearGradient>
</defs>
</svg>
